<svg xmlns="http://www.w3.org/2000/svg" xmlns:xlink="http://www.w3.org/1999/xlink" version="1.1" x="0px" y="0px" viewBox="0 0 512 640" enable-background="new 0 0 512 512" xml:space="preserve"><g><path d="M268.7,125.2c-7.4-7.4-19.2-7.3-26.5,0l-9.3,9.3l-20.8-37.3C194,64.7,149.7,58.6,123.3,85l-0.8,0.8   c-26.4,26.4-20.3,70.7,12.2,88.8l37.3,20.8l-9.3,9.3c-7.3,7.3-7.4,19.1,0,26.5c7.3,7.3,19.2,7.3,26.5,0l79.5-79.5   C276,144.4,276,132.5,268.7,125.2z"/><path d="M388.1,350.6c7.3-7.3,7.3-19.2,0-26.5l-17-17c3.3-12.3,0.1-25.9-9.5-35.5l-80.1-80.1L229,244l80.1,80.1   c9.7,9.7,23.2,12.9,35.5,9.5l17,17C368.8,357.9,380.8,357.9,388.1,350.6z"/><path d="M387.3,387.2c0,0-18.8,27.1-18.8,37.5c0,10.4,8.4,18.8,18.8,18.8c10.4,0,18.8-8.4,18.8-18.8   C406,414.4,387.3,387.2,387.3,387.2z"/></g><text x="0" y="527" fill="#000000" font-size="5px" font-weight="bold" font-family="'Helvetica Neue', Helvetica, Arial-Unicode, Arial, Sans-serif">Created by Creative Stall</text><text x="0" y="532" fill="#000000" font-size="5px" font-weight="bold" font-family="'Helvetica Neue', Helvetica, Arial-Unicode, Arial, Sans-serif">from the Noun Project</text></svg>