<svg xmlns="http://www.w3.org/2000/svg" xmlns:xlink="http://www.w3.org/1999/xlink" version="1.1" x="0px" y="0px" viewBox="0 0 512 640" enable-background="new 0 0 512 512" xml:space="preserve"><g><path d="M443.5,349.8V68.5h-375v281.3h131.3V406h-37.6v37.5h187.6V406h-37.6v-56.2H443.5z M106,106h300v206.3H106V106z"/><path d="M292.5,156.3c-2.5-7.5-9.4-12.6-17.2-12.8c-7.9-0.3-15,4.5-18,11.8l-18.5,46.3l-2.6-7.7c-2.5-7.7-9.7-12.8-17.8-12.8h-75   v37.5H205l14.5,43.4c2.5,7.5,9.4,12.6,17.2,12.8c0.2,0,0.4,0,0.5,0c7.7,0,14.6-4.7,17.4-11.8l18.5-46.2l2.6,7.7   c2.5,7.7,9.7,12.8,17.8,12.8h75v-37.5H307L292.5,156.3z"/></g><text x="0" y="527" fill="#000000" font-size="5px" font-weight="bold" font-family="'Helvetica Neue', Helvetica, Arial-Unicode, Arial, Sans-serif">Created by Creative Stall</text><text x="0" y="532" fill="#000000" font-size="5px" font-weight="bold" font-family="'Helvetica Neue', Helvetica, Arial-Unicode, Arial, Sans-serif">from the Noun Project</text></svg>