<svg version="1.1" id="Layer_1" xmlns="http://www.w3.org/2000/svg" x="0" y="0" viewBox="0 0 500 500" xml:space="preserve"><path fill="#0067B1" d="M500 249.5C500 387.3 388.3 499 250.5 499S1 387.3 1 249.5 112.7 0 250.5 0 500 111.7 500 249.5"/><path fill="#FFF" d="M355.8 296.9c-.6-1-.6-2.2.1-3.1 6.2-8.2 2.1-16 0-19.1-.6-.8-.7-1.9-.2-2.8 4.3-7.9.1-14.6-2.1-17.4-.7-.8-.9-1.9-.4-2.9 4.2-9.2-.6-14.8-2.7-16.6-.6-.5-.9-1.3-.9-2-.2-8-5.4-13.2-6.3-14l-.2-.2c-11.5-8.5-21.4 1.7-21.4 1.7-27.7 27.4-70.8 32.2-70.8 32.2-29.9 3.9-78-14.1-78-14.1-15.1-4.4-21.1 9.5-22.5 13.2-.2.6-.7 1.1-1.2 1.4-10.5 6.2-6.9 16.5-4.8 20.6.5 1 .3 2.3-.5 3.1-7.9 8.1-4.1 17.7-2.1 21.5.5 1 .5 2.2-.2 3-7.5 9.6-.9 19.1 2.3 22.8.8.9 1 2.3.3 3.3-7.7 12 1 20.2 5.1 23.1 1 .7 1.5 2 1.1 3.1-4.5 13 5.8 19.1 9 20.7.6.3 1 .8 1.3 1.4 5.7 13.9 16.5 12.6 20.1 11.7.8-.2 1.7 0 2.3.5 12 9.7 4 22.5 4 22.5-.4.6-.6 1.2-.7 1.7-.6 2.6 2.5 4.3 4.6 2.7 4.1-3.1 4.5-11.9 4.5-11.9 1-8.3-2.7-13.7-5.3-16.4-1-1.1-1.1-2.8-.1-3.8 6.5-6.8 1.9-19.1 1.4-20.4 0-.1-.1-.1-.1-.2-16-29.3-14.7-64.7-13.2-79.6.2-2.3 3-3.4 4.6-1.9 6.7 6.3 16.5 3.6 20.3 2.2 1-.4 2-.1 2.8.6 8.4 7.1 16.7 4.2 20.3 2.3 1.1-.6 2.4-.3 3.3.5 6.9 6.9 16.9 2.3 20.3.4.8-.4 1.7-.4 2.6 0 10.3 4.8 16.3 0 18.7-2.9.8-.9 2.1-1.2 3.3-.7 10 4.3 16.4-2.4 18.8-5.8.7-1 2-1.4 3.1-1 9.2 3.3 15.2-.7 18.7-5.2 1.6-2.1 4.9-1.1 5.1 1.5 3.2 48.6-9.1 90.5-9.1 90.5-2.4 9.3-9.7 8.7-9.7 8.7l-17.1.4c-23.6 0-37.3 8.8-37.3 8.8-14.5 8.5-13.8 26.6-13.8 26.6v16.3c-.2 9 6.4 12.7 9.7 13.9 1.1.4 1.8 1.4 1.9 2.6l.5 12.6c.1 3.3 2.8 5.9 6.1 5.9s6.1-2.7 6.1-6.1V441c0-1.1.7-2.2 1.8-2.6 7.9-3.1 7.7-12.8 7.7-12.8v-10.3c0-1.8 1.7-3.2 3.5-2.8 9.1 2.4 13.5-1.2 15.4-3.7.8-1.1 2.3-1.5 3.6-.9 8 3.9 14.3-.4 16.7-2.6.8-.7 1.9-.9 2.9-.5 12.2 4 17.2-4.9 18.7-8.8.4-1 1.2-1.7 2.3-1.9 14.3-1.8 14.4-15 14-19.5-.1-.9.3-1.8 1-2.4 6.6-6.1 5.1-15 4.1-18.5-.3-.9-.1-1.9.6-2.7 4.6-5.2 3.5-11.2 2.7-13.9-.3-1 0-2.1.8-2.8 7.5-7.4 4.2-15.3 2.3-18.5-.5-.9-.5-2.1.1-2.9 4.7-6.8 2-13.1.2-16"/><path fill="#FFF" d="M185.5 286.5c2 .9 4.8 1.7 8.5 1.8.9 0 1.8.4 2.3 1.2 2 2.9 8.2 9.8 22.1 7.5 0 0 21.4-5.1 27.8 9.8 0 0 2.1 4.4 2.4 8.5 0 0 1.4 11.8 9 9.1 0 0 7-1.4 2.9-13.2 0 0-7.2-13.8 1.3-17.9 0 0 7.4-2 10.3-5.3.7-.8 1.7-1.2 2.7-.9 3.8 1.1 12.9 2.6 19.3-5.1.7-.8 1.8-1.2 2.8-.9 1.9.4 5.1.9 8.3.3 1-.2 1.8.9 1.3 1.8-2.7 5-10.6 15.6-29.6 15 0 0-9-.6-7.1 7.4 0 0 11.7 22.2.7 29.3 0 0-10 7-23.9 1.6 0 0-8.8-2.5-8.5-15.6 0 0 .8-13.9-11.2-13.7 0 0-35.2 7.9-45.4-10-.3-.5-.4-1-.4-1.6l.3-6.5c.3-2.1 2.3-3.4 4.1-2.6"/><path fill="#FFF" d="M200.2 287.6s1-.1 2-.5c1-.5 2.2-.3 3.1.3 2.9 2.1 8.7 5.7 14.3 5.5.1 0-12.4 3.6-19.4-5.3M242.2 293.9c-1.1.2-1.3 1.6-.4 2.1 3 1.7 6.9 4.7 8.2 9.6 0 0 .9 6.6 2.7 11.2 1.3 3.1 5.9 1.7 5.4-1.6-.3-2-1-4.7-2.4-8.3 0 0-2.7-6.7-.4-11.6.7-1.4.2-3.1-1.2-3.8-.4-.2-.9-.4-1.4-.7-.9-.6-2.1-.5-3 .1-1.4 1-4 2.3-7.5 3M181.3 303.1c1.8 2.1 5.6 5.7 11 7 .4.1.7.5.5.9-.8 2.3-2.9 9.1.4 9.9 0 0 3.2 1.1 4.1-8.6 0-.4.4-.7.8-.7 3 .5 14.9 2.1 23.7-.1 0 0 6.3-2.1 9.5-.1.1 0 .1.1.2.2l3.1 3.4s-9.1-.9-16.8 3.9c0 0-12.6 9.4-23.6 7.8-.2 0-11.5-2.5-12.8-10 0 0-1.2-7.7-1.3-13.1-.2-.7.7-1 1.2-.5M190.5 330.4c-2.5-.6-4.3 2.1-3 4.3 1.9 3 5.2 5.9 11.1 6.2 0 0 11.9.3 15.7-7.6l2.6-6.8c.4-1.1-.8-2.2-1.8-1.6-5.1 2.9-15.2 7.7-24.6 5.5M223 356.2c-.2-.1-.3-.2-.5-.3-1.4-1.1-8.9-7.4-4.3-20.8l4.5-13.2s.6-2.4 3.9-2.5h5.4s1.8-.2 1.7 3.5c0 0-.4 6.3 1.2 9.5.5 1 .4 2.3-.4 3.2l-6.2 6.9s-2.7 2.9-1.2 5.3c0 0 1.5 2.1 4.5-1l6-7.1c.9-1 2.3-1.3 3.5-.7 2.2 1.2 5.8 3 8.8 3.9 1.8.6 2.6 2.7 1.5 4.3-3.8 5.8-13.3 16.1-28.4 9"/><path fill="#FFF" d="M212 344.5c-.1 3.5.6 8.9 4.4 12.3 1.8 1.6.8 4.6-1.6 4.9-1.1.1-2.4.2-3.9.1 0 0-2.6 4.3 3.8 4.6 0 0 6-.2 9-2.9 0 0 1.5-1.6 5.3-.9 0 0 8.1.7 11.1-1 0 0 4.5-2.1 4.4 1.1 0 0 1.2 8.1-3.8 10.1 0 0-15.5 3.9-25.7-1.7 0 0-15.5-7-16.1-14.8 0 0-1.3-11.1 9.3-14.5 1.9-.6 3.9.7 3.8 2.7M274.4 305.7s-1.6-5.5 4-4.6c0 0 12.4 2.9 14.8 18.9v.2c.1 1.4 1.4 15.8-6.2 23.2l-5.3 6.2s-1.9 2.1-.1 3.7c0 0 2 1.3 4-1.4l1.9-2.3 5.9 6.6s2.3 2.4 4.1.7c0 0 1.7-1.6-.7-4.2l-4.6-5.4c-.9-1.1-.9-2.7 0-3.7l1-1.1c.9-1.1 2.5-1.3 3.7-.5 3.6 2.4 10.6 8 10.9 15.3 0 0 .6 10.4-13.7 10.6 0 0-18.2 1.7-27.5-10.6 0 0-4.1-5.1-4.5-11.7-.1-1.3.8-2.6 2.1-2.9 4.2-1.2 13.5-4.9 15.3-15.6.2-1.3 1.3-2.2 2.6-2.3l5.9-.3s2.6-.2 2.5-1.9c0 0 .4-2.6-3.1-2.4h-6.1c-1.3 0-2.5-.9-2.8-2.2-.6-2.8-2-8.2-4.1-12.3M290.9 304.9c2.7 3.3 6 9.1 7.2 18.5.2 1.3 1.1 2.3 2.3 2.5 1.1.2 2.4.4 3.7.9 1.8.6 3.7-.9 3.6-2.8-.3-6.2-1.6-17.2-6.6-24.7-.8-1.2-2.4-1.7-3.7-1-1.3.7-3.2 1.6-5.3 2.2-1.8.5-2.5 2.9-1.2 4.4M304.5 297s0 .1 0 0c1.1 1.4 3 1.5 4.2.4 3.6-3.4 9.5-10.6 8.7-20.5-.1-.9-1.3-1.4-1.9-.7-.8.9-1.8 1.8-3.1 2.5-.8.4-1.3 1.2-1.4 2.1-.3 2.6-1.5 8.2-6.1 12.2-1.2 1.1-1.4 2.8-.4 4M309.5 311.3c.5 2.8 1.6 10.8 1 17.8 0 .4.1.8.4 1.1l3.2 3s2.1-11.8 2.1-20.7c0-1.4-1-2.7-2.4-2.9-.9-.1-2.1-.1-3.4.3-.6.2-1 .8-.9 1.4"/><path fill="#FFF" d="M297.8 330.6c-.2 1.4-.6 3.6-1.2 5.4-.2.7 0 1.5.6 1.9 2.5 1.5 8.4 5.6 11.5 10.6.8 1.2 2.6.8 2.9-.5.7-3.2 1.5-7.6 1.6-10.8 0-.4-.2-.8-.5-1.1-1.4-1.4-6.3-5.8-13.3-6.9-.6-.1-1.5.5-1.6 1.4M308.9 306.8c-.3-1.1-.8-2.5-1.3-3.7-.3-.6-.1-1.4.5-1.8 1.5-1 4.4-3.2 6.5-5.7.6-.8 1.9-.3 1.8.7-.1 2.8-.3 6.5-.3 9.5 0 .9-.7 1.5-1.6 1.4-1.1-.1-2.6-.1-3.9.3-.7.4-1.5 0-1.7-.7M253.4 362.1c2-1.9 4 .8 4 .8l4.4 5.8c.3.4.7.6 1.2.6l6.5-.4c1.4-.1 1.8-1.9.7-2.6-6.5-4.2-9.8-9.7-11.4-14.2-.8-2.1-3.7-2.4-5-.6-2.1 3-4.3 4.8-5.5 5.6-.4.3-.6.8-.6 1.3l.5 3.7c.2 4-.6 6.7-1.5 8.3-.5 1 .2 2.1 1.3 2.1 2.8 0 5.7-.4 5.7-.4 2.2-.3 3.8-.7 3.8-.7l-4-5.4c-2.2-2.4-.1-3.9-.1-3.9M187.7 344.3c1.1 3.4 3.6 9.7 7.1 11.6.4.2.8-.1.8-.5-.1-1.8-.2-6 1.7-8.4.2-.3 0-.8-.3-.8-1.7-.3-5.3-1.2-8-2.8-.8-.3-1.5.2-1.3.9M334.5 139.4c-6.9-26.3-26.6-35.8-26.6-35.8-11-6-32.5 2.4-32.5 2.4-10.9 2.4-12.4-6.6-12.4-6.6-3.9-14.9 3.2-47 3.2-47 1.1-11.1-7.9-12-7.9-12-9.7-1.7-12.4 7.7-12.4 7.7-4.7 13.4-4.4 49.7-4.4 49.7-.9 11.1 8 28.2 8 28.2 9.5 21.9 12 36.6 12 36.6 4 21-20 29.3-20 29.3-22.6 7.1-33.7-2.6-33.7-2.6-7.1-5.4-13.7-5.6-13.7-5.6-15.7-.5-22.5 13.6-22.5 13.6-7 10.4-1.6 28.6.9 35.8 6.4 2.3 11.9 4.5 22.1 7.2l-3.5-8.2c-5.4-15.1 0-18.1 0-18.1 7-5.1 13 6.1 13 6.1 11.1 17.4 33.2 19.6 33.2 19.6 37.1 4.7 64.2-19.4 64.2-19.4 23.1-17.5 32.5-51.2 32.5-51.2 4.4-13.2.5-29.7.5-29.7"/><path fill="#0067B1" d="M230.1 206.2s-11 1.4-9.2 7.9c0 0 .9 6.6 13.4 9.8 0 0 30.5 6.3 51.5-8.8 0 0 18.1-12.2 26.5-31 0 0 8.5-18.5-.3-23.6 0 0-8.8-5.6-22.9 1 0 0-10.4 4.5-15 15.4 0 0-8 17.2-17.4 22.1 0-.1-10.8 5.4-26.6 7.2"/></svg>