<svg xmlns="http://www.w3.org/2000/svg" xmlns:xlink="http://www.w3.org/1999/xlink" version="1.1" x="0px" y="0px" viewBox="0 0 512 640" enable-background="new 0 0 512 512" xml:space="preserve"><g><path d="M397.1,293.5c-15.7,0-29.6,7.5-38,19c-8.4-11.5-22.3-19-38-19c-25.6,0-46.4,19.9-46.4,44.6c0,68.9,84.4,105.4,84.4,105.4   s84.4-36.6,84.4-105.4C443.5,313.4,422.7,293.5,397.1,293.5z"/><polygon points="106,106 349.7,106 349.7,274.1 387.2,274.1 387.2,68.5 68.5,68.5 68.5,443.4 274.7,443.4 274.7,406 106,406  "/><rect x="143.5" y="143.5" width="168.7" height="37.5"/><rect x="143.5" y="218.5" width="168.7" height="37.5"/><rect x="143.5" y="293.5" width="93.7" height="37.5"/></g><text x="0" y="527" fill="#000000" font-size="5px" font-weight="bold" font-family="'Helvetica Neue', Helvetica, Arial-Unicode, Arial, Sans-serif">Created by Creative Stall</text><text x="0" y="532" fill="#000000" font-size="5px" font-weight="bold" font-family="'Helvetica Neue', Helvetica, Arial-Unicode, Arial, Sans-serif">from the Noun Project</text></svg>