<svg xmlns="http://www.w3.org/2000/svg" xmlns:xlink="http://www.w3.org/1999/xlink" version="1.1" x="0px" y="0px" viewBox="0 0 512 640" enable-background="new 0 0 512 512" xml:space="preserve"><g><path d="M175.5,287.9l21.2-20.8l24.8,36.6c3.7,5.5,10,8.6,16.8,8.2c6.6-0.4,12.5-4.4,15.5-10.4l20.5-41.3l21.6,42.2   c2.7,5.4,7.9,9.1,13.9,10c0.9,0.1,1.9,0.2,2.8,0.2c5,0,9.8-2,13.4-5.6l31.2-31.9l86.3-0.4l-0.2-37.5l-94.1,0.4   c-5,0-9.8,2.1-13.3,5.6l-18.5,18.9l-26.7-52.2c-3.2-6.3-9.7-10.2-16.7-10.2c0,0-0.1,0-0.1,0c-7.1,0-13.5,4.1-16.7,10.4L234.5,256   L215,227.4c-3.1-4.6-8.1-7.6-13.7-8.1c-5.5-0.6-11,1.4-15,5.3l-31.7,31.2l-86.2,0.2l0.1,37.5l93.8-0.2   C167.3,293.2,172,291.3,175.5,287.9z"/><path d="M373,312.5l-20.3,20.7c-10.2,10.4-24.2,16.3-38.6,16.7c-22,21.3-43.4,37.9-58.1,48.4c-19.2-13.8-50-37.9-78.7-69.6   c-4.8,1.3-9.7,2.1-14.8,2.1l-32.1,0.1C184.9,400.7,256,443.4,256,443.4s83.6-50.3,139.2-131.1L373,312.5z"/><path d="M112.6,218.4c-3.4-12.3-5.7-24.9-6.4-37.9c-1.7-32.1,16.1-63.2,47-71.8c27.7-7.9,56.2,2.6,72,25.1l15.4,22.1   c7.5,10.7,23.2,10.7,30.7,0l13.5-19.3c10.5-15.2,26.4-26.8,44.6-29.6c41-6.7,76.5,24.9,76.5,64.7c0,9.6-1.1,19-2.6,28.2l38-0.2   c1.3-9.2,2.1-18.5,2.1-28.1c0-57-46.1-103.1-103.1-103.1c-34.9,0-65.8,17.2-84.3,43.9c-18.6-26.6-49.5-43.9-84.3-43.9   c-57,0-103.1,46.1-103.1,103.1c0,16.1,2,31.7,5.5,46.8L112.6,218.4z"/></g><text x="0" y="527" fill="#000000" font-size="5px" font-weight="bold" font-family="'Helvetica Neue', Helvetica, Arial-Unicode, Arial, Sans-serif">Created by Creative Stall</text><text x="0" y="532" fill="#000000" font-size="5px" font-weight="bold" font-family="'Helvetica Neue', Helvetica, Arial-Unicode, Arial, Sans-serif">from the Noun Project</text></svg>