<svg xmlns="http://www.w3.org/2000/svg" xmlns:xlink="http://www.w3.org/1999/xlink" version="1.1" x="0px" y="0px" viewBox="0 0 512 640" enable-background="new 0 0 512 512" xml:space="preserve"><g><path d="M256,68.5c-103.5,0-187.5,84-187.5,187.5h375C443.5,152.5,359.5,68.5,256,68.5z M312.3,181h-37.5v37.5h-37.5V181h-37.5   v-37.5h37.5V106h37.5v37.5h37.5V181z"/><path d="M312.3,387.3c0,10.3-8.4,18.8-18.8,18.8s-18.8-8.4-18.8-18.8V274.8h-37.5v112.5c0,31.1,25.3,56.3,56.3,56.3   s56.3-25.1,56.3-56.3v-18.8h-37.5V387.3z"/></g><text x="0" y="527" fill="#000000" font-size="5px" font-weight="bold" font-family="'Helvetica Neue', Helvetica, Arial-Unicode, Arial, Sans-serif">Created by Creative Stall</text><text x="0" y="532" fill="#000000" font-size="5px" font-weight="bold" font-family="'Helvetica Neue', Helvetica, Arial-Unicode, Arial, Sans-serif">from the Noun Project</text></svg>