<svg xmlns="http://www.w3.org/2000/svg" xmlns:xlink="http://www.w3.org/1999/xlink" version="1.1" x="0px" y="0px" viewBox="0 0 512 640" enable-background="new 0 0 512 512" xml:space="preserve"><g><path d="M271.8,245.5l-50.1-50.1C215,206,206,215,195.3,222.1l50.1,50.1c3-5.6,6.8-10.7,11.4-15.4   C261.3,252.3,266.3,248.5,271.8,245.5z"/><path d="M430.1,365.4l-95.4-95.4c-17.9-17.9-46.8-17.9-64.7,0c-17.9,17.8-17.9,46.8,0,64.7l95.4,95.4c8.9,8.9,20.6,13.4,32.3,13.4   s23.4-4.5,32.3-13.4C448,412.3,448,383.3,430.1,365.4z"/><path d="M218.8,143.6c0-41.4-33.7-75.1-75.1-75.1c-41.4,0-75.1,33.7-75.1,75.1c0,41.4,33.7,75.1,75.1,75.1   C185.1,218.8,218.8,185.1,218.8,143.6z M143.6,181.3c-20.8,0-37.6-16.9-37.6-37.6c0-20.8,16.9-37.6,37.6-37.6   c20.8,0,37.6,16.9,37.6,37.6C181.3,164.4,164.4,181.3,143.6,181.3z"/></g><text x="0" y="527" fill="#000000" font-size="5px" font-weight="bold" font-family="'Helvetica Neue', Helvetica, Arial-Unicode, Arial, Sans-serif">Created by Creative Stall</text><text x="0" y="532" fill="#000000" font-size="5px" font-weight="bold" font-family="'Helvetica Neue', Helvetica, Arial-Unicode, Arial, Sans-serif">from the Noun Project</text></svg>