<?xml version="1.0" encoding="utf-8"?>
<!-- Generator: Adobe Illustrator 16.0.5, SVG Export Plug-In . SVG Version: 6.00 Build 0)  -->
<!DOCTYPE svg PUBLIC "-//W3C//DTD SVG 1.1//EN" "http://www.w3.org/Graphics/SVG/1.1/DTD/svg11.dtd">
<svg version="1.1" id="Layer_1" xmlns="http://www.w3.org/2000/svg" xmlns:xlink="http://www.w3.org/1999/xlink" x="0px" y="0px"
	 width="562px" height="562px" viewBox="0 0 562 562" enable-background="new 0 0 562 562" xml:space="preserve">
<g>
	<path fill="none" d="M396.726,222.234c-26.237-25.522-61.892-34.634-96.048-22.679c-8.48,3.016-16.961,4.927-25.47,5.772
		c-0.619-5.829-1.399-11.606-2.344-17.336c5.396-1.067,10.398-0.236,15.693,0.897c18.907,3.879,36.36,0.971,51.873-10.665
		c24.725-18.907,33.936-52.843,23.755-83.384c-8.727,3.878-16.968,8.241-26.179,11.635c-6.787,2.424-14.059,2.908-20.846,5.332
		c-17.938,5.818-32.966,15.514-42.178,32.481c-3.454,6.679-5.691,13.579-6.843,20.694c-2.403-9.748-5.288-19.384-8.671-28.936
		c-1.938-5.817-3.878-10.666-6.302-16.483c-1.939-4.848-8.241-4.848-10.181,0c-1.939,4.363-3.879,8.727-5.333,12.604
		c-0.969,2.909-0.484,6.788,1.454,9.212c14.498,19.054,20.501,41.646,25.873,64.451c-10.009-0.007-20.071-1.465-30.235-4.337
		c-15.513-4.363-31.512-3.395-47.025,1.939c-22.785,8.241-36.844,24.724-47.024,45.57c-14.059,29.572-14.544,60.114-6.787,91.141
		c9.211,36.845,27.633,68.841,49.934,98.898l8.553,9.789c11.068,10.383,24.841,15.63,40.411,16.39
		c16.968,0.97,75.628,1.454,88.232,1.938c12.12,0,23.755-2.424,34.42-8.241c14.544-7.757,26.18-18.907,36.36-31.512
		c24.239-31.026,37.328-66.901,40.723-106.169c2.867-32.022-5.111-61.214-24.847-86.653l-10.893-12.273
		C396.777,222.287,396.752,222.259,396.726,222.234z"/>
	<path fill="#34C0EE" d="M183.843,439.043c-22.301-30.058-40.723-62.054-49.934-98.898c-7.757-31.026-7.271-61.568,6.787-91.141
		c10.181-20.847,24.239-37.329,47.024-45.57c15.514-5.334,31.513-6.303,47.025-1.939c10.164,2.872,20.227,4.33,30.235,4.337
		c-5.372-22.806-11.375-45.397-25.873-64.451c-1.938-2.424-2.423-6.303-1.454-9.212c1.454-3.878,3.394-8.241,5.333-12.604
		c1.939-4.848,8.241-4.848,10.181,0c2.424,5.817,4.363,10.666,6.302,16.483c3.383,9.552,6.268,19.188,8.671,28.936
		c1.151-7.115,3.389-14.016,6.843-20.694c9.212-16.968,24.24-26.663,42.178-32.481c6.787-2.424,14.059-2.908,20.846-5.332
		c9.211-3.394,17.452-7.757,26.179-11.635c10.181,30.541,0.97,64.477-23.755,83.384c-15.513,11.636-32.966,14.544-51.873,10.665
		c-5.295-1.134-10.298-1.965-15.693-0.897c0.944,5.729,1.725,11.507,2.344,17.336c8.509-0.846,16.989-2.757,25.47-5.772
		c34.156-11.955,69.811-2.843,96.048,22.679l0.005-0.004l0.072,0.082c3.525,3.436,6.887,7.159,10.045,11.178
		c0.288,0.363,0.564,0.73,0.848,1.095l134.126,151.134C554.828,353.354,562,318.017,562,281C562,125.808,436.192,0,281,0
		C125.808,0,0,125.808,0,281c0,155.192,125.808,281,281,281c3.382,0,6.746-0.081,10.099-0.2l-98.704-112.968L183.843,439.043z"/>
	<path opacity="0.2" fill="#636464" d="M396.803,222.312l10.893,12.273c-0.283-0.365-0.56-0.731-0.848-1.095
		C403.689,229.471,400.328,225.748,396.803,222.312z"/>
	<path fill="#E3E5E7" d="M396.73,222.23l-0.005,0.004c0.026,0.025,0.052,0.053,0.077,0.078L396.73,222.23z"/>
	<path opacity="0.2" fill="#636464" d="M396.73,222.23l-0.005,0.004c0.026,0.025,0.052,0.053,0.077,0.078L396.73,222.23z"/>
	<path fill="#34C0EE" d="M541.821,385.719L407.695,234.585c19.735,25.439,27.714,54.631,24.847,86.653
		c-3.395,39.268-16.483,75.143-40.723,106.169c-10.181,12.604-21.816,23.755-36.36,31.512c-10.665,5.817-22.3,8.241-34.42,8.241
		c-12.604-0.484-71.265-0.969-88.232-1.938c-15.57-0.76-29.343-6.007-40.411-16.39L291.099,561.8
		C404.911,557.777,501.486,486.086,541.821,385.719z"/>
	<path opacity="0.15" fill="#16657B" d="M541.821,385.719L407.695,234.585c19.735,25.439,27.714,54.631,24.847,86.653
		c-3.395,39.268-16.483,75.143-40.723,106.169c-10.181,12.604-21.816,23.755-36.36,31.512c-10.665,5.817-22.3,8.241-34.42,8.241
		c-12.604-0.484-71.265-0.969-88.232-1.938c-15.57-0.76-29.343-6.007-40.411-16.39L291.099,561.8
		C404.911,557.777,501.486,486.086,541.821,385.719z"/>
</g>
</svg>
