<svg xmlns="http://www.w3.org/2000/svg" xmlns:xlink="http://www.w3.org/1999/xlink" version="1.1" x="0px" y="0px" viewBox="0 0 512 640" enable-background="new 0 0 512 512" xml:space="preserve"><path d="M406,334.4V124.8c0-31.1-25.3-56.3-56.3-56.3s-56.3,25.1-56.3,56.3v168.8c0,30.9-25.3,56.3-56.3,56.3S181,324.4,181,293.5  v-1.9c42.8-8.6,75-46.7,75-91.9v-75c0-31.1-25.3-56.3-56.3-56.3c-10.3,0-18.8,8.3-18.8,18.8c0,10.3,8.4,18.8,18.8,18.8  s18.8,8.3,18.8,18.8v75c0,30.9-25.3,56.3-56.3,56.3S106,230.7,106,199.8v-75c0-10.5,8.4-18.8,18.8-18.8s18.8-8.4,18.8-18.8  c0-10.5-8.4-18.8-18.8-18.8c-30.9,0-56.3,25.1-56.3,56.3v75c0,45.2,32.3,83.3,75,91.9v1.9c0,51.6,42,93.8,93.8,93.8  s93.8-42.2,93.8-93.8V124.8c0-10.5,8.4-18.8,18.8-18.8s18.8,8.3,18.8,18.8v209.6c-21.8,7.7-37.5,28.3-37.5,52.9  c0,30.9,25.3,56.3,56.3,56.3s56.3-25.3,56.3-56.3C443.5,362.7,427.8,342.1,406,334.4z"/><text x="0" y="527" fill="#000000" font-size="5px" font-weight="bold" font-family="'Helvetica Neue', Helvetica, Arial-Unicode, Arial, Sans-serif">Created by Creative Stall</text><text x="0" y="532" fill="#000000" font-size="5px" font-weight="bold" font-family="'Helvetica Neue', Helvetica, Arial-Unicode, Arial, Sans-serif">from the Noun Project</text></svg>