<svg xmlns="http://www.w3.org/2000/svg" xmlns:xlink="http://www.w3.org/1999/xlink" version="1.1" x="0px" y="0px" viewBox="0 0 512 640" enable-background="new 0 0 512 512" xml:space="preserve"><path d="M344,73.8c-36.4-1.2-68.8,16.3-88,43.9c-19.2-27.6-51.7-45.1-88.1-43.9c-60.2,2-103.3,57.4-99.2,117.5  c2.6,37.2,15.1,71.6,32.6,102.3c2.9,5.1,4.5,10.7,4.9,16.5c4.3,58.1,41.6,107.3,93.5,128.2V317.8c0-31.1,25.2-56.3,56.3-56.3  c31.1,0,56.3,25.2,56.3,56.3v120.5c51.8-20.9,89.2-70,93.5-128.2c0.4-5.8,2-11.4,4.9-16.5c17.5-30.7,30-65.2,32.6-102.3  C447.4,131.2,404.2,75.8,344,73.8z"/><text x="0" y="527" fill="#000000" font-size="5px" font-weight="bold" font-family="'Helvetica Neue', Helvetica, Arial-Unicode, Arial, Sans-serif">Created by Creative Stall</text><text x="0" y="532" fill="#000000" font-size="5px" font-weight="bold" font-family="'Helvetica Neue', Helvetica, Arial-Unicode, Arial, Sans-serif">from the Noun Project</text></svg>