<?xml version="1.0" encoding="iso-8859-1"?>
<!-- Generator: Adobe Illustrator 19.0.0, SVG Export Plug-In . SVG Version: 6.00 Build 0)  -->
<svg version="1.1" id="Capa_1" xmlns="http://www.w3.org/2000/svg" xmlns:xlink="http://www.w3.org/1999/xlink" x="0px" y="0px"
	 viewBox="0 0 436.907 436.907" style="enable-background:new 0 0 436.907 436.907;" xml:space="preserve">
<circle style="fill:#E05B49;" cx="218.453" cy="218.453" r="218.453"/>
<path style="opacity:0.1;enable-background:new    ;" d="M433.152,258.389L292.864,118.101l0,0l0,0
	c-0.683-0.683-1.365-1.365-2.389-1.707c-3.413-2.048-7.851-2.048-11.264-0.341l-155.648,84.992v12.629h-9.557v5.461h1.707
	c-0.341,12.629-5.803,29.696-14.677,38.571c-7.168,7.168-11.264,17.067-10.581,27.989c0.683,9.899,5.461,18.773,12.629,24.917
	l126.293,126.293C331.435,431.445,415.061,356.352,433.152,258.389z"/>
<path style="fill:#E1E6E9;" d="M343.723,299.691l-38.912-52.565h-0.341v-69.291h-36.864v69.632l0,0l-38.912,52.224
	c-6.827,9.557-0.341,22.869,11.605,22.869h91.819C343.723,322.56,350.549,309.248,343.723,299.691z"/>
<path style="fill:#F6C358;" d="M340.309,299.349l-36.523-47.445h-34.816l-36.523,47.445c-6.485,8.533-0.341,20.48,10.923,20.48
	h86.357C340.651,319.829,346.795,307.541,340.309,299.349z"/>
<rect x="257.707" y="169.984" style="fill:#D5D6DB;" width="57.344" height="12.629"/>
<g>
	<circle style="fill:#E1E6E9;" cx="314.709" cy="292.864" r="6.827"/>
	<circle style="fill:#E1E6E9;" cx="263.851" cy="301.739" r="6.827"/>
	<circle style="fill:#E1E6E9;" cx="270.677" cy="274.773" r="6.827"/>
	<circle style="fill:#E1E6E9;" cx="293.205" cy="261.12" r="6.827"/>
</g>
<path style="fill:#EBF0F3;" d="M115.712,217.771c0,12.629-5.461,30.72-14.677,39.595c-7.168,7.168-11.264,17.067-10.581,27.989
	c1.024,18.091,16.043,32.768,34.133,33.792c20.821,1.024,37.888-15.701,37.888-36.181c0-9.899-4.096-19.115-10.923-25.6
	c-9.216-9.216-14.336-26.624-14.336-39.595"/>
<path style="fill:#27A2DB;" d="M148.139,262.485h-43.349c-6.144,6.144-9.557,14.677-8.875,23.893
	c1.024,15.36,13.653,27.989,29.355,28.672c17.749,0.683,32.427-13.312,32.427-30.72
	C157.355,275.797,153.941,268.288,148.139,262.485z"/>
<rect x="114.005" y="213.333" style="fill:#D5D6DB;" width="25.259" height="5.461"/>
<g>
	<circle style="fill:#EBF0F3;" cx="135.851" cy="308.907" r="3.413"/>
	<circle style="fill:#EBF0F3;" cx="149.163" cy="298.325" r="2.389"/>
	<circle style="fill:#EBF0F3;" cx="143.36" cy="281.6" r="2.389"/>
	<circle style="fill:#EBF0F3;" cx="116.395" cy="305.493" r="2.389"/>
	<circle style="fill:#EBF0F3;" cx="111.616" cy="293.888" r="2.389"/>
	<circle style="fill:#EBF0F3;" cx="116.395" cy="278.528" r="2.389"/>
	<circle style="fill:#EBF0F3;" cx="130.048" cy="269.653" r="2.389"/>
</g>
<path style="fill:#E1E6E9;" d="M176.469,209.92v94.549c0,6.144,5.12,11.264,11.264,11.264s11.264-5.12,11.264-11.264V209.92H176.469
	z"/>
<rect x="173.056" y="207.189" style="fill:#D5D6DB;" width="29.013" height="6.144"/>
<path style="fill:#3EA69B;" d="M178.176,238.592v65.877c0,5.12,4.096,9.216,9.216,9.216c5.12,0,9.216-4.096,9.216-9.216v-65.877
	H178.176z"/>
<path style="fill:#44C4A1;" d="M178.176,238.592v65.877c0,5.12,4.096,9.216,9.216,9.216v-75.093L178.176,238.592L178.176,238.592z"
	/>
<g>
	<circle style="fill:#EBF0F3;" cx="189.44" cy="307.883" r="1.707"/>
	<circle style="fill:#EBF0F3;" cx="191.147" cy="296.96" r="1.707"/>
	<circle style="fill:#EBF0F3;" cx="191.147" cy="283.648" r="1.707"/>
	<circle style="fill:#EBF0F3;" cx="182.955" cy="285.696" r="1.707"/>
	<circle style="fill:#EBF0F3;" cx="185.685" cy="267.605" r="1.707"/>
	<circle style="fill:#EBF0F3;" cx="183.637" cy="249.173" r="1.707"/>
</g>
<g>
	<rect x="123.563" y="219.136" style="fill:#64798A;" width="5.803" height="43.691"/>
	<rect x="274.773" y="182.613" style="fill:#64798A;" width="5.803" height="69.291"/>
	<rect x="290.133" y="182.613" style="fill:#64798A;" width="5.803" height="69.291"/>
	<path style="fill:#64798A;" d="M129.365,213.333h-5.803v-12.629l155.648-84.651c3.755-2.048,7.851-2.048,11.264,0.341
		c3.413,2.048,5.803,5.803,5.803,9.899v44.032h-6.144v-44.373c0-2.048-1.024-3.755-2.731-4.779c-1.707-1.024-3.755-1.024-5.803,0
		l-152.235,83.285V213.333z"/>
	<rect x="184.661" y="213.333" style="fill:#64798A;" width="5.803" height="24.917"/>
	<path style="fill:#64798A;" d="M190.464,207.189h-5.803V194.56l82.261-45.739c2.731-1.707,6.485-1.707,9.216,0
		c2.731,1.707,4.437,4.779,4.437,7.851v12.971h-5.803v-12.629c0-1.707-1.365-2.731-1.707-3.072c-0.683-0.341-1.707-1.024-3.413,0
		l-79.189,44.032V207.189z"/>
</g>
<g>
</g>
<g>
</g>
<g>
</g>
<g>
</g>
<g>
</g>
<g>
</g>
<g>
</g>
<g>
</g>
<g>
</g>
<g>
</g>
<g>
</g>
<g>
</g>
<g>
</g>
<g>
</g>
<g>
</g>
</svg>
