<svg xmlns="http://www.w3.org/2000/svg" xmlns:xlink="http://www.w3.org/1999/xlink" version="1.1" x="0px" y="0px" viewBox="0 0 512 640" enable-background="new 0 0 512 512" xml:space="preserve"><path d="M387.3,331c-8.6,0-16.9,2.1-24.2,5.4l-98.3-98.3c6.9-11.3,10.7-24.4,10.7-38.4c0-4.3-0.4-8.6-1.1-12.8l66.9-29.8  c10.1,14.4,27,23.8,45.9,23.8c31.1,0,56.3-25.3,56.3-56.3c0-31.1-25.1-56.3-56.3-56.3c-29.8,0-54.2,23.1-56.1,52.3l-72,32.1  c-13.7-17.8-35.3-29.1-59.4-29.1c-41.8,0-75.9,33.9-75.9,75.9c0,25.1,12.4,47.4,31.3,61.1l-28.3,70.3c-0.8-0.2-1.3-0.2-2.1-0.2  c-31.1,0-56.3,25.1-56.3,56.3c0,30.9,25.1,56.3,56.3,56.3s56.3-25.3,56.3-56.3c0-16.9-7.5-32.1-19.3-42.2l28.1-70.3  c3.2,0.6,6.6,0.8,9.9,0.8c14.3,0,27.4-3.8,38.6-10.7l98.3,98.3c-3.6,7.3-5.6,15.6-5.6,24.2c0,30.9,25.1,56.3,56.3,56.3  s56.3-25.3,56.3-56.3C443.5,356.1,418.4,331,387.3,331z M387.3,106c10.3,0,18.8,8.3,18.8,18.8c0,10.3-8.4,18.8-18.8,18.8  s-18.8-8.4-18.8-18.8C368.5,114.3,376.9,106,387.3,106z M124.8,406c-10.3,0-18.8-8.4-18.8-18.8c0-10.5,8.4-18.8,18.8-18.8  s18.8,8.3,18.8,18.8C143.5,397.6,135.1,406,124.8,406z M199.8,238c-21.2,0-38.4-17.3-38.4-38.3c0-21.2,17.3-38.4,38.4-38.4  s38.3,17.3,38.3,38.4C238,220.8,220.9,238,199.8,238z M387.3,406c-10.3,0-18.8-8.4-18.8-18.8c0-10.5,8.4-18.8,18.8-18.8  s18.8,8.3,18.8,18.8C406,397.6,397.6,406,387.3,406z"/><text x="0" y="527" fill="#000000" font-size="5px" font-weight="bold" font-family="'Helvetica Neue', Helvetica, Arial-Unicode, Arial, Sans-serif">Created by Creative Stall</text><text x="0" y="532" fill="#000000" font-size="5px" font-weight="bold" font-family="'Helvetica Neue', Helvetica, Arial-Unicode, Arial, Sans-serif">from the Noun Project</text></svg>