<svg xmlns="http://www.w3.org/2000/svg" xmlns:xlink="http://www.w3.org/1999/xlink" version="1.1" x="0px" y="0px" viewBox="0 0 512 640" enable-background="new 0 0 512 512" xml:space="preserve"><g><path d="M173.1,141.7c-4.6,1.9-9.4,2.9-14.4,2.9c-10.4,0-18.7,8.4-18.7,18.7c0,10.4,8.4,18.7,18.7,18.7c9.9,0,19.6-1.9,28.8-5.7   c9.6-4,14.1-14.9,10.1-24.5C193.6,142.3,182.6,137.7,173.1,141.7z"/><path d="M145.8,264.3c-10.4,0-18.7,8.4-18.7,18.8c0,10.4,8.4,18.8,18.7,18.8c20.7,0,37.5,16.8,37.5,37.5c0,10.4,8.4,18.7,18.7,18.7   c10.4,0,18.8-8.4,18.8-18.7C220.8,298,187.1,264.3,145.8,264.3z"/><path d="M329.1,195.1c9.1,3.8,18.8,5.7,28.8,5.7c10.4,0,18.8-8.4,18.8-18.7c0-10.4-8.4-18.7-18.8-18.7c-5,0-9.8-1-14.4-2.8   c-9.5-4-20.5,0.6-24.5,10.1C315,180.2,319.6,191.1,329.1,195.1z"/><path d="M441.5,292.5c0.3-1.1,0.5-2.2,0.7-3.3c0.7-4.1,1.2-8.4,1.3-12.7c0-0.2,0.1-0.5,0.1-0.7c0-0.1-0.1-0.2-0.1-0.3   c-0.1-15.9-5.1-31.1-14.2-43.7c1.8-2.9,3.1-6.1,4.6-9.2c0.8-1.7,1.8-3.3,2.5-5c1.6-3.9,2.7-7.9,3.7-12c0.5-1.8,1.2-3.6,1.6-5.5   c0.9-4.4,1.1-9,1.4-13.5c0.1-1.6,0.5-3.1,0.5-4.6c0-0.1,0-0.2,0-0.3c0-6-0.6-12-1.8-18.1c-1.2-6.1-3.1-11.8-5.4-17.4   c-0.2-0.4-0.3-0.8-0.5-1.2c-7-16.4-18.6-30.4-33.3-40.4c-0.2-0.1-0.4-0.3-0.6-0.4c-8.4-5.6-17.6-10-27.6-12.6   c-1.2-0.3-2.4-0.5-3.6-0.7c-1.4-0.3-2.8-0.6-4.3-0.9c-5.1-0.9-10.2-1.5-15.3-1.5c-0.5,0-0.9-0.1-1.4-0.1c-0.4,0-0.7,0.2-1.1,0.2   c-6.1,0.1-12.3,0.6-18.3,1.9c-3.4-4-7.7-7.4-12.7-10.3c-7.8-4.5-16.7-6.9-25.6-6.9c-13.8,0-26.4,5.6-36.2,14.5   c-9.8-8.9-22.4-14.5-36.2-14.5c-8.9,0-17.7,2.4-25.6,6.9c-5,2.9-9.3,6.3-12.7,10.3c-14.3-3-29.3-2.6-43.9,1.2   c-34.4,9-60.8,37.3-67.4,72.1c-4.6,24.2-0.1,48.3,12.5,68.2c-0.4,0.5-0.6,1.1-1,1.6c-0.8,1.2-1.5,2.5-2.3,3.8   c-1.6,2.7-3.1,5.4-4.3,8.2c-0.6,1.4-1.2,2.8-1.7,4.2c-1.1,3-2,6.1-2.8,9.3c-0.3,1.2-0.6,2.3-0.8,3.5c-0.8,4.4-1.3,8.9-1.3,13.4   c0,4.5,0.5,8.9,1.3,13.2c0.1,0.8,0.3,1.5,0.5,2.3c1.9,9,5.4,17.5,10.2,25c0.3,0.5,0.6,0.9,0.9,1.4c6.3,9.3,14.6,17.3,24.6,23   c0.4,17.3,7.2,33.3,20.5,48.8c12,13.9,28.9,22.5,47.5,24.3c3.3,5.4,7.7,10.2,13,14.2c9.2,7,20.1,10.6,31.5,10.6   c14.3,0,27.4-5.8,37.4-15.1c10,9.2,23.1,15.1,37.4,15.1c11.4,0,22.3-3.7,31.5-10.7c5.3-4,9.7-8.8,13-14.2   c18.5-1.7,35.5-10.4,47.5-24.3c13.3-15.5,20.1-31.6,20.6-48.8c1.2-0.7,2.2-1.5,3.4-2.2c0.7-0.4,1.3-0.8,2-1.3   c7.4-5.1,13.8-11.6,18.9-18.9c0.3-0.5,0.7-1,1-1.5C435.9,309.5,439.5,301.3,441.5,292.5z M237.2,382.1c0,15.4-17.4,23.7-27.5,16.1   c-3.6-2.7-4.6-5.3-5-7.2c-1.9-8.6-10.7-14.4-19.6-14.4c-0.8,0-1.5,0-2.2,0.1l-1.9,0c-10.2,0-19.7-4.2-26-11.6   c-12.1-14.1-12.4-24.1-10.8-32.8c1.6-9.2-3.8-18.2-12.6-21.1c-7-2.3-12.8-6.7-17.2-12.2c-0.6-0.7-1.2-1.4-1.7-2.1   c-1.8-2.6-3.2-5.5-4.3-8.5c-0.3-0.8-0.5-1.6-0.7-2.5c-0.9-3.2-1.5-6.5-1.6-9.9c0-0.2,0-0.5,0-0.7c0-2.5,0.3-4.9,0.8-7.3   c0.2-0.8,0.5-1.6,0.7-2.4c0.5-1.7,1-3.3,1.7-4.9c0.4-0.9,0.9-1.7,1.3-2.5c0.8-1.4,1.6-2.9,2.5-4.2c0.6-0.8,1.3-1.6,1.9-2.4   c1-1.2,2.1-2.4,3.4-3.5c14.3-12.9,37.9-12.6,51.7,1.1c7.3,7.3,19.2,7.3,26.5,0c7.3-7.3,7.3-19.2,0-26.5   c-21.9-21.9-56.4-26.7-84-14.7c-5.9-11.2-7.9-24.2-5.4-37.5c3.9-20.3,20-37.5,40.1-42.8c12.4-3.2,24.8-2.5,36.5,2.3   c5.1,2.1,10.9,1.8,15.8-0.8c4.9-2.6,8.4-7.2,9.5-12.7c0.1-0.6,0.4-2.1,3.9-4c9.7-5.6,24.3,2.9,24.3,16.4V382.1z M329.3,376.7   C329.2,376.7,329.2,376.7,329.3,376.7c-10-2-19.8,4.4-22,14.3c-0.4,1.9-1.4,4.5-5,7.2c-10.1,7.7-27.5-0.7-27.5-16.1V129   c0-10.5,9.2-18.3,17.4-18.3c2.4,0,4.7,0.6,6.9,1.9c3.4,2,3.7,3.4,3.9,4c1.2,5.4,4.7,10,9.5,12.6c4.9,2.6,10.7,2.9,15.8,0.8   c8-3.2,16.3-4.5,24.7-4c1.8,0.1,3.5,0.3,5.2,0.5c1.6,0.2,3.2,0.5,4.8,0.9c6.5,1.6,12.6,4.2,18,7.8c0.2,0.1,0.4,0.3,0.5,0.4   c8.8,6,15.8,14.5,20,24.4c0,0.1,0,0.1,0.1,0.2c1.5,3.6,2.6,7.5,3.4,11.5c0.7,3.9,1,7.9,0.9,11.8c0,1.1-0.2,2.1-0.3,3.2   c-0.2,3-0.7,6-1.4,9c-0.4,1.4-0.8,2.8-1.3,4.2c-0.8,2.4-1.8,4.7-2.9,7c-0.7,1.5-1.5,2.9-2.4,4.3c-1.4,2.2-3,4.4-4.7,6.4   c-10.3,12.5-25.7,20.6-43.2,20.6c-10.4,0-18.7,8.4-18.7,18.7c0,10.4,8.4,18.8,18.7,18.8c19.4,0,37.5-6,52.5-16.1   c2.4,5,3.7,10.5,3.7,16.2c0,3.6-0.7,7.1-1.6,10.4c-0.2,0.7-0.4,1.5-0.7,2.2c-1.1,3.1-2.6,6-4.4,8.7c-0.4,0.6-0.9,1.1-1.4,1.7   c-1.7,2.2-3.7,4.2-5.9,6c-0.6,0.5-1.1,1-1.7,1.4c-2.8,2-5.9,3.6-9.2,4.7c-3.9,1.4-8.1,2.3-12.5,2.3c-10,0-19.4-3.9-26.5-11   c-7.3-7.3-19.2-7.3-26.5,0c-7.3,7.3-7.3,19.2,0,26.5c13.6,13.6,31.6,21.2,50.8,21.7c-1.7,4.4-4.6,9.2-9.3,14.6   C350.6,372.5,341.2,376.7,329.3,376.7z"/></g><text x="0" y="527" fill="#000000" font-size="5px" font-weight="bold" font-family="'Helvetica Neue', Helvetica, Arial-Unicode, Arial, Sans-serif">Created by Creative Stall</text><text x="0" y="532" fill="#000000" font-size="5px" font-weight="bold" font-family="'Helvetica Neue', Helvetica, Arial-Unicode, Arial, Sans-serif">from the Noun Project</text></svg>