<svg xmlns="http://www.w3.org/2000/svg" xmlns:xlink="http://www.w3.org/1999/xlink" version="1.1" x="0px" y="0px" viewBox="0 0 512 640" enable-background="new 0 0 512 512" xml:space="preserve"><path d="M443.5,162.6c0-24.2-9.2-48.3-27.5-66.6c-36.7-36.7-96.2-36.7-132.9,0l-187,187c-36.7,36.7-36.7,96.2,0,132.9  c36.7,36.7,96.2,36.7,132.9,0l187-187C434.3,210.6,443.5,186.6,443.5,162.6z M389.4,202.4l-81.7,81.7l-79.8-79.8l81.7-81.7  c22.1-22.1,57.8-21.9,79.8,0C411.4,144.7,411.4,180.3,389.4,202.4z"/><text x="0" y="527" fill="#000000" font-size="5px" font-weight="bold" font-family="'Helvetica Neue', Helvetica, Arial-Unicode, Arial, Sans-serif">Created by Creative Stall</text><text x="0" y="532" fill="#000000" font-size="5px" font-weight="bold" font-family="'Helvetica Neue', Helvetica, Arial-Unicode, Arial, Sans-serif">from the Noun Project</text></svg>