<svg xmlns="http://www.w3.org/2000/svg" xmlns:xlink="http://www.w3.org/1999/xlink" version="1.1" x="0px" y="0px" viewBox="0 0 512 640" enable-background="new 0 0 512 512" xml:space="preserve"><g><path d="M255.8,162.1c0-51.6-42-93.6-93.8-93.6c-51.6,0-93.6,42-93.6,93.6v187.7c0,51.8,42,93.8,93.6,93.8   c51.8,0,93.8-42,93.8-93.8V162.1z M218.3,256H106v-93.9c0-30.9,25.1-56.1,56.1-56.1s56.3,25.1,56.3,56.1V256z"/><path d="M399.6,187.4c-28.3-28.3-66-43.9-106.1-43.9c-0.5,0-1.1,0-1.7,0.1c0.9,6.1,1.5,12.2,1.5,18.5v19c0.1,0,0.1,0,0.2,0   c23.6,0,46.1,7.1,65.1,20.8l-65.3,65.3v53.1l91.9-91.9c13.5,18.9,20.8,41.4,20.8,65.3c0,30-11.6,58.3-33,79.5   c-21.2,21.2-49.5,33-79.5,33c-4.3,0-8.4-0.4-12.6-0.9C275,417.6,267.3,429,258,439c11.5,2.8,23.3,4.5,35.5,4.5   c40.1,0,77.8-15.8,106.1-44.1s43.9-66,43.9-105.9C443.5,253.4,427.9,215.7,399.6,187.4z"/></g><text x="0" y="527" fill="#000000" font-size="5px" font-weight="bold" font-family="'Helvetica Neue', Helvetica, Arial-Unicode, Arial, Sans-serif">Created by Creative Stall</text><text x="0" y="532" fill="#000000" font-size="5px" font-weight="bold" font-family="'Helvetica Neue', Helvetica, Arial-Unicode, Arial, Sans-serif">from the Noun Project</text></svg>