<svg xmlns="http://www.w3.org/2000/svg" xmlns:xlink="http://www.w3.org/1999/xlink" version="1.1" x="0px" y="0px" viewBox="0 0 512 640" enable-background="new 0 0 512 512" xml:space="preserve"><g><path d="M200,181H87.5v37.7h37.3v37.5H87.5v37.3h37.3v37.3H87.5v56.4c0,30,23.8,54.7,53.6,56.1L200,282.1V181z"/><rect x="68.5" y="106" width="150" height="37.5"/><rect x="237.2" y="68.5" width="150" height="37.5"/><path d="M368.7,237.5v-93.9H256.2v93.9l-75.2,206h262.5L368.7,237.5z M274.8,293.5c0-10.5,8.4-18.7,18.7-18.7s18.7,8.2,18.7,18.7   c0,10.3-8.4,18.7-18.7,18.7S274.8,303.8,274.8,293.5z M331,406c-20.8,0-37.5-16.9-37.5-37.5c0-20.8,16.7-37.5,37.5-37.5   c20.6,0,37.5,16.7,37.5,37.5C368.5,389.1,351.6,406,331,406z"/></g><text x="0" y="527" fill="#000000" font-size="5px" font-weight="bold" font-family="'Helvetica Neue', Helvetica, Arial-Unicode, Arial, Sans-serif">Created by Creative Stall</text><text x="0" y="532" fill="#000000" font-size="5px" font-weight="bold" font-family="'Helvetica Neue', Helvetica, Arial-Unicode, Arial, Sans-serif">from the Noun Project</text></svg>