<svg xmlns="http://www.w3.org/2000/svg" xmlns:xlink="http://www.w3.org/1999/xlink" version="1.1" x="0px" y="0px" viewBox="0 0 512 640" enable-background="new 0 0 512 512" xml:space="preserve"><path d="M344.1,73.8c-36.4-1.3-68.9,16.1-88.1,43.7c-19.2-27.6-51.6-45.1-88.1-43.7c-60.3,1.9-103.5,57.3-99.1,117.5  c2.6,37.2,15,71.5,32.5,102.3c2.8,5.1,4.5,10.7,4.9,16.5c4.3,58,41.7,107.2,93.5,128.1V317.7c0-15.4,6.4-29.7,16.5-39.8  c10.1-10.1,24.2-16.5,39.8-16.5c31.2,0,56.3,25.3,56.3,56.3v120.5c51.8-20.8,89.2-70,93.5-128.1c0.4-5.8,2.1-11.5,4.9-16.5  c17.5-30.8,30-65.3,32.5-102.5C447.5,131.1,404.3,75.7,344.1,73.8z M406.2,199.6h-37.6v37.6h-37.6v-37.6h-37.6v-37.6h37.6v-37.6  h37.6v37.6h37.6V199.6z"/><text x="0" y="527" fill="#000000" font-size="5px" font-weight="bold" font-family="'Helvetica Neue', Helvetica, Arial-Unicode, Arial, Sans-serif">Created by Creative Stall</text><text x="0" y="532" fill="#000000" font-size="5px" font-weight="bold" font-family="'Helvetica Neue', Helvetica, Arial-Unicode, Arial, Sans-serif">from the Noun Project</text></svg>