<svg xmlns="http://www.w3.org/2000/svg" xmlns:xlink="http://www.w3.org/1999/xlink" version="1.1" x="0px" y="0px" viewBox="0 0 512 640" enable-background="new 0 0 512 512" xml:space="preserve"><path d="M365.1,256L330.6,83.5c-1.7-8.6-9.4-15-18.2-15h-0.2c-8.8,0-16.3,6-18.4,14.6l-56.3,253.7l-38.3-178.5  c-1.9-8.4-9.2-14.6-17.8-14.8c-8.6-0.6-16.3,5.4-18.6,13.7l-33.8,123.8l-4.7-28.1c-1.5-9-9.4-15.6-18.6-15.6H68.5v37.5h21.6  l16.1,96.8c1.5,8.6,8.8,15.2,17.6,15.6c8.4,0.6,16.7-5.3,19.1-13.7l35.8-132l40.1,187.3c1.9,8.6,9.6,14.6,18.4,14.8  c8.8,0,16.5-6.2,18.4-14.8L311.3,178l20.1,100.3c1.7,8.8,9.4,15.2,18.4,15.2h93.8V256H365.1z"/><text x="0" y="527" fill="#000000" font-size="5px" font-weight="bold" font-family="'Helvetica Neue', Helvetica, Arial-Unicode, Arial, Sans-serif">Created by Creative Stall</text><text x="0" y="532" fill="#000000" font-size="5px" font-weight="bold" font-family="'Helvetica Neue', Helvetica, Arial-Unicode, Arial, Sans-serif">from the Noun Project</text></svg>