<svg xmlns="http://www.w3.org/2000/svg" xmlns:xlink="http://www.w3.org/1999/xlink" version="1.1" x="0px" y="0px" viewBox="0 0 512 640" enable-background="new 0 0 512 512" xml:space="preserve"><g><path d="M424.8,162.2H87.3c-10.4,0-18.8,8.4-18.8,18.8v225c0,10.4,8.4,18.8,18.8,18.8H106v18.8h37.5v-18.8h225v18.8H406v-18.8h18.8   c10.4,0,18.8-8.4,18.8-18.8V181C443.5,170.6,435.1,162.2,424.8,162.2z M406,387.2H106V199.7h300V387.2z"/><polygon points="237.3,349.8 274.8,349.8 274.8,312.3 312.3,312.3 312.3,274.8 274.8,274.8 274.8,237.3 237.3,237.3 237.3,274.8    199.8,274.8 199.8,312.3 237.3,312.3  "/><path d="M199.8,106h112.5v37.5h37.5V87.3c0-10.4-8.4-18.8-18.8-18.8H181c-10.4,0-18.8,8.4-18.8,18.8v56.3h37.5V106z"/></g><text x="0" y="527" fill="#000000" font-size="5px" font-weight="bold" font-family="'Helvetica Neue', Helvetica, Arial-Unicode, Arial, Sans-serif">Created by Creative Stall</text><text x="0" y="532" fill="#000000" font-size="5px" font-weight="bold" font-family="'Helvetica Neue', Helvetica, Arial-Unicode, Arial, Sans-serif">from the Noun Project</text></svg>