<svg xmlns="http://www.w3.org/2000/svg" xmlns:xlink="http://www.w3.org/1999/xlink" version="1.1" x="0px" y="0px" viewBox="0 0 512 640" enable-background="new 0 0 512 512" xml:space="preserve"><g><path d="M256,398.3c-43.3-31.1-144.4-114.2-149.8-218.1c-1.7-31.9,16.1-63,47.1-71.6c27.8-7.9,56.3,2.6,72,25.1l15.4,22.1   c7.5,10.7,23.3,10.7,30.8,0l13.5-19.3c10.5-15.2,26.3-26.8,44.6-29.6c35.3-5.8,66.4,16.7,74.4,48.4c14.6,6.6,27.9,15.9,39.2,27.2   c0.2-3.6,0.4-7.1,0.4-10.9c0-57-46.1-103.1-103.1-103.1c-34.9,0-65.8,17.3-84.4,43.9c-18.6-26.6-49.5-43.9-84.4-43.9   c-57,0-103.1,46.1-103.1,103.1C68.5,331,256,443.5,256,443.5s25.5-15.4,57.8-42.8c-13.7-3.8-26.3-9.8-37.7-17.6   C268.6,389.1,261.8,394.2,256,398.3z"/><path d="M349.8,181c-25.9,0-49.3,10.5-66.4,27.6c-16.9,16.9-27.4,40.3-27.4,66.2s10.5,49.3,27.4,66.2   c17.1,17.1,40.5,27.6,66.4,27.6c51.8,0,93.8-42,93.8-93.8c0-25.9-10.5-49.3-27.4-66.2C399.1,191.5,375.6,181,349.8,181z M406,293.5   h-37.5V331H331v-37.5h-37.5V256H331v-37.5h37.5V256H406V293.5z"/></g><text x="0" y="527" fill="#000000" font-size="5px" font-weight="bold" font-family="'Helvetica Neue', Helvetica, Arial-Unicode, Arial, Sans-serif">Created by Creative Stall</text><text x="0" y="532" fill="#000000" font-size="5px" font-weight="bold" font-family="'Helvetica Neue', Helvetica, Arial-Unicode, Arial, Sans-serif">from the Noun Project</text></svg>