<svg xmlns="http://www.w3.org/2000/svg" xmlns:xlink="http://www.w3.org/1999/xlink" version="1.1" x="0px" y="0px" viewBox="0 0 512 640" enable-background="new 0 0 512 512" xml:space="preserve"><path d="M438,411.5l-71.8-71.8c7.3-7.3,7.3-19.3,0-26.6l-7.1-7.1c6.7-24.9,0.2-52.9-19.5-72.4l-33.9-34.1  c13.9-0.7,26.8-6.4,36.6-16.1c10.7-10.7,16.5-24.7,16.5-39.9c0-15-5.8-29.1-16.5-39.7c-21.2-21.2-58.3-21.2-79.5,0  c-9.9,9.9-15.6,22.7-16.3,36.6l-31.1-31.1l-39.9,39.9l-33.6-33.6l14.8-15c7.3-7.3,7.3-19.1,0-26.4c-7.3-7.3-19.1-7.3-26.4,0  L74,130.3c-7.3,7.3-7.3,19.1,0,26.4c3.6,3.7,8.4,5.6,13.3,5.6c4.7,0,9.6-1.9,13.1-5.6l15-14.8l33.6,33.6l-39.7,39.7l31.7,31.7  c-13.7,0.6-27.2,5.8-37.3,15.9c-10.5,10.5-16.3,24.7-16.3,39.7s5.8,29.1,16.3,39.7c10.7,10.7,24.7,16.5,39.9,16.5  c15,0,29.1-5.8,39.7-16.5c9.7-9.9,15.7-22.9,16.3-36.7l34.1,34.1c14.6,14.6,33.7,21.9,53,21.9c6.7,0,13.5-0.9,19.9-2.6l6.9,6.7  c7.1,7.1,18.7,7.3,26.1,0.4l71.8,71.8c3.7,3.7,8.4,5.4,13.3,5.4s9.6-1.7,13.3-5.4C445.3,430.6,445.3,418.8,438,411.5z M289.2,130.3  c3.6-3.6,8.2-5.6,13.3-5.6c5.1,0,9.7,2.1,13.3,5.6s5.4,8.2,5.4,13.1c0,5.1-1.9,9.7-5.4,13.3c-7.1,7.1-19.5,7.1-26.6,0  c-3.6-3.6-5.4-8.2-5.4-13.3C283.7,138.6,285.6,133.9,289.2,130.3z M156.6,315.9c-6.9,6.9-19.3,7.1-26.4,0c-3.6-3.6-5.4-8.2-5.4-13.3  c0-5.1,1.9-9.7,5.4-13.3c3.6-3.6,8.2-5.4,13.3-5.4c4.9,0,9.6,1.9,13.1,5.4c3.6,3.6,5.6,8.2,5.6,13.3  C162.3,307.7,160.2,312.4,156.6,315.9z M162.3,215.3l53-53l67,67.3l-53,53L162.3,215.3z"/><text x="0" y="527" fill="#000000" font-size="5px" font-weight="bold" font-family="'Helvetica Neue', Helvetica, Arial-Unicode, Arial, Sans-serif">Created by Creative Stall</text><text x="0" y="532" fill="#000000" font-size="5px" font-weight="bold" font-family="'Helvetica Neue', Helvetica, Arial-Unicode, Arial, Sans-serif">from the Noun Project</text></svg>