<svg xmlns="http://www.w3.org/2000/svg" xmlns:xlink="http://www.w3.org/1999/xlink" version="1.1" x="0px" y="0px" viewBox="0 0 512 640" enable-background="new 0 0 512 512" xml:space="preserve"><g><path d="M162.3,143.5c10.3,0,19.7-4.1,26.4-11.1c6.9-6.7,11.1-16.1,11.1-26.4c0-10.5-4.1-19.9-11.1-26.6   c-6.8-6.8-16.1-10.9-26.4-10.9c-10.5,0-19.9,4.1-26.6,10.9s-10.9,16.1-10.9,26.6C124.8,126.6,141.4,143.5,162.3,143.5z"/><path d="M162.3,162.3c-41.4,0-75,33.6-75,75V331H106v0.2l18.8,112.3h75l19.1-112.3V331h18.4v-93.8c0-20.6-8.4-39.4-21.9-53.1   C201.6,170.7,182.9,162.3,162.3,162.3z"/><polygon points="368.5,124.8 368.5,68.5 312.3,68.5 312.3,124.8 256,124.8 256,181 312.3,181 312.3,237.3 368.5,237.3 368.5,181    424.8,181 424.8,124.8  "/></g><text x="0" y="527" fill="#000000" font-size="5px" font-weight="bold" font-family="'Helvetica Neue', Helvetica, Arial-Unicode, Arial, Sans-serif">Created by Creative Stall</text><text x="0" y="532" fill="#000000" font-size="5px" font-weight="bold" font-family="'Helvetica Neue', Helvetica, Arial-Unicode, Arial, Sans-serif">from the Noun Project</text></svg>