<svg xmlns="http://www.w3.org/2000/svg" xmlns:xlink="http://www.w3.org/1999/xlink" version="1.1" x="0px" y="0px" viewBox="0 0 512 640" enable-background="new 0 0 512 512" xml:space="preserve"><g><polygon points="237.3,274.8 274.8,274.8 274.8,237.3 312.3,237.3 312.3,199.8 274.8,199.8 274.8,162.3 237.3,162.3 237.3,199.8    199.8,199.8 199.8,237.3 237.3,237.3  "/><rect x="200.1" y="68.5" width="111.7" height="56.3"/><polygon points="331,87.3 331,124.8 368.5,124.8 368.5,406 143.5,406 143.5,124.8 181,124.8 181,87.3 106,87.3 106,443.5    406,443.5 406,87.3  "/><rect x="181.4" y="331" width="149.6" height="37.5"/></g><text x="0" y="527" fill="#000000" font-size="5px" font-weight="bold" font-family="'Helvetica Neue', Helvetica, Arial-Unicode, Arial, Sans-serif">Created by Creative Stall</text><text x="0" y="532" fill="#000000" font-size="5px" font-weight="bold" font-family="'Helvetica Neue', Helvetica, Arial-Unicode, Arial, Sans-serif">from the Noun Project</text></svg>