<svg xmlns="http://www.w3.org/2000/svg" xmlns:xlink="http://www.w3.org/1999/xlink" version="1.1" x="0px" y="0px" viewBox="0 0 512 640" enable-background="new 0 0 512 512" xml:space="preserve"><g><path d="M350.9,152.7h73.8c10.4,0,18.8-8.4,18.8-18.8c0-10.4-8.4-18.8-18.8-18.8h-73.8c-10.4,0-18.8,8.4-18.8,18.8   C332.1,144.3,340.5,152.7,350.9,152.7z"/><path d="M424.7,190.3h-93.6H180.9H87.3c-10.4,0-18.8,8.4-18.8,18.8c0,10.4,8.4,18.8,18.8,18.8h93.6c0,10.4,8.4,18.8,18.8,18.8H211   l-38.6,38.6c-3.3-0.6-6.6-1-10-1c-31.1,0-56.4,25.3-56.4,56.4s25.3,56.4,56.4,56.4s56.4-25.3,56.4-56.4c0-13.6-5-25.8-13-35.6   l50.6-50.6l50.5,50.5c-8.3,10.1-13,22.4-13,35.5c0,15,5.8,29.3,16.5,39.8c10.7,10.7,24.8,16.5,39.8,16.5c15,0,29.3-5.8,39.8-16.5   c10.7-10.5,16.5-24.8,16.5-39.8c0-15-5.8-29.1-16.5-39.8c-12.9-12.9-31.8-17.9-49.4-15l-39-39h10.7c10.4,0,18.8-8.4,18.8-18.8h93.6   c10.4,0,18.8-8.4,18.8-18.8C443.5,198.7,435.1,190.3,424.7,190.3z M162.4,359.3c-10.4,0-18.8-8.4-18.8-18.8   c0-10.4,8.4-18.8,18.8-18.8s18.8,8.4,18.8,18.8C181.2,350.9,172.8,359.3,162.4,359.3z M350.2,322.1c10.3,0,18.8,8.3,18.8,18.8   c0,10.3-8.5,18.8-18.8,18.8c-10.3,0-18.8-8.5-18.8-18.8C331.4,330.3,339.9,322.1,350.2,322.1z"/></g><text x="0" y="527" fill="#000000" font-size="5px" font-weight="bold" font-family="'Helvetica Neue', Helvetica, Arial-Unicode, Arial, Sans-serif">Created by Creative Stall</text><text x="0" y="532" fill="#000000" font-size="5px" font-weight="bold" font-family="'Helvetica Neue', Helvetica, Arial-Unicode, Arial, Sans-serif">from the Noun Project</text></svg>