<svg xmlns="http://www.w3.org/2000/svg" xmlns:xlink="http://www.w3.org/1999/xlink" version="1.1" x="0px" y="0px" viewBox="0 0 512 640" enable-background="new 0 0 512 512" xml:space="preserve"><g><path d="M390.2,265.5c3.8,3.9,8.9,5.7,14,5.7c4.9,0,9.9-1.8,13.8-5.7c7.7-7.7,7.7-20.3,0-28L264.5,84.1c-3.9-3.8-8.9-5.7-13.8-5.7   c-5.1,0-10.3,2-14,5.7c-7.7,7.7-7.7,20.1,0,27.8l14,14L94.6,282c-34.7,34.5-34.7,90.8,0,125.5c34.5,34.7,90.8,34.7,125.5,0   l156.1-156.1L390.2,265.5z M294.9,276.9H155.3l95.3-95.1l69.7,69.7L294.9,276.9z"/><path d="M404,315.2c0,0-39.5,57.2-39.5,79c0,21.8,17.7,39.5,39.5,39.5c21.8,0,39.5-17.7,39.5-39.5C443.5,372.3,404,315.2,404,315.2   z"/></g><text x="0" y="527" fill="#000000" font-size="5px" font-weight="bold" font-family="'Helvetica Neue', Helvetica, Arial-Unicode, Arial, Sans-serif">Created by Creative Stall</text><text x="0" y="532" fill="#000000" font-size="5px" font-weight="bold" font-family="'Helvetica Neue', Helvetica, Arial-Unicode, Arial, Sans-serif">from the Noun Project</text></svg>