<svg xmlns="http://www.w3.org/2000/svg" xmlns:xlink="http://www.w3.org/1999/xlink" version="1.1" x="0px" y="0px" viewBox="0 0 512 640" enable-background="new 0 0 512 512" xml:space="preserve"><g><path d="M106,424.8c0,10.4,8.4,18.8,18.8,18.8h93.8c10.4,0,18.8-8.4,18.8-18.8v-37.5H106V424.8z"/><polygon points="106,349.8 237.3,349.8 274.8,68.5 68.5,68.5  "/><path d="M424.8,68.5c-10.4,0-18.8,8.4-18.8,18.8v337.5c0,10.4,8.4,18.8,18.8,18.8s18.8-8.4,18.8-18.8V87.3   C443.5,76.9,435.1,68.5,424.8,68.5z"/><polygon points="331,218.5 387.6,199.8 387.6,87.3 331,68.5  "/></g><text x="0" y="527" fill="#000000" font-size="5px" font-weight="bold" font-family="'Helvetica Neue', Helvetica, Arial-Unicode, Arial, Sans-serif">Created by Creative Stall</text><text x="0" y="532" fill="#000000" font-size="5px" font-weight="bold" font-family="'Helvetica Neue', Helvetica, Arial-Unicode, Arial, Sans-serif">from the Noun Project</text></svg>